<svg xmlns="http://www.w3.org/2000/svg" width="226.502" height="53.602" viewBox="0 0 226.502 53.602"><defs><style>.a{fill:#009a5e;}</style></defs><path class="a" d="M251.14,66.943V62.607h4.783v4.337h1.217v-9.2h-1.217v3.778H251.14V57.743h-1.217v9.2ZM244.162,61.7a1.621,1.621,0,0,1,1.28-.644,1.577,1.577,0,0,1,1.252.622,2.973,2.973,0,0,1,.518,1.927,2.924,2.924,0,0,1-.54,1.917,1.614,1.614,0,0,1-2.723-.229,3.448,3.448,0,0,1-.327-1.733,2.823,2.823,0,0,1,.54-1.86m-.527,4.408a2.122,2.122,0,0,0,1.852.986,2.647,2.647,0,0,0,2.033-.936,3.807,3.807,0,0,0,.848-2.648,4.474,4.474,0,0,0-.2-1.355,3.372,3.372,0,0,0-.556-1.083,2.381,2.381,0,0,0-.9-.7,2.812,2.812,0,0,0-1.164-.248,2.232,2.232,0,0,0-1.826.9V57.743h-1.13v9.2h1.048Zm-10.618.835V63.485a4.131,4.131,0,0,1,.182-1.393,1.425,1.425,0,0,1,.586-.735,1.65,1.65,0,0,1,.882-.25,1.05,1.05,0,0,1,.9.376,1.914,1.914,0,0,1,.276,1.13v4.33h1.13V63.07a2.058,2.058,0,0,1,.464-1.5,1.579,1.579,0,0,1,1.168-.467,1.241,1.241,0,0,1,.677.182.948.948,0,0,1,.4.48,3.117,3.117,0,0,1,.109.975v4.2h1.124V62.368a2.348,2.348,0,0,0-.533-1.692,2.031,2.031,0,0,0-1.526-.55,2.391,2.391,0,0,0-2.058,1.168,1.649,1.649,0,0,0-.669-.86,2.2,2.2,0,0,0-1.214-.308,2.344,2.344,0,0,0-1.187.3,2.375,2.375,0,0,0-.834.788v-.936h-1.011v6.666Zm-3.973-3.609v1.713a3.959,3.959,0,0,1-1.143.65,4.1,4.1,0,0,1-1.544.3,3.815,3.815,0,0,1-1.718-.4,2.7,2.7,0,0,1-1.233-1.23,4.486,4.486,0,0,1-.423-2.058,4.832,4.832,0,0,1,.351-1.852,3.175,3.175,0,0,1,.581-.909,2.677,2.677,0,0,1,.981-.669,3.721,3.721,0,0,1,1.444-.255,3.246,3.246,0,0,1,1.268.242,2.126,2.126,0,0,1,.879.644,3.379,3.379,0,0,1,.514,1.1l1.1-.3a4,4,0,0,0-.7-1.506,3.015,3.015,0,0,0-1.265-.9,4.8,4.8,0,0,0-1.8-.322,5.069,5.069,0,0,0-2.428.564,3.733,3.733,0,0,0-1.617,1.73,5.693,5.693,0,0,0-.561,2.507,5.28,5.28,0,0,0,.566,2.454,3.842,3.842,0,0,0,1.672,1.679,5.226,5.226,0,0,0,2.463.579,5.484,5.484,0,0,0,1.958-.361,6.876,6.876,0,0,0,1.851-1.076V62.249l-3.9.006v1.079Zm-16.434-1.758a1.8,1.8,0,0,1,1.309-.521,1.73,1.73,0,0,1,1.4.654,2.249,2.249,0,0,1,.426,1.262h-3.721a2.067,2.067,0,0,1,.586-1.394m2.426,4.262a1.731,1.731,0,0,1-1.06.327,1.85,1.85,0,0,1-1.394-.584,2.564,2.564,0,0,1-.621-1.682h4.97c0-.134.007-.234.007-.3a3.617,3.617,0,0,0-.847-2.561,2.851,2.851,0,0,0-2.184-.91,2.938,2.938,0,0,0-2.248.929,3.69,3.69,0,0,0-.866,2.611,3.514,3.514,0,0,0,.858,2.526,3.463,3.463,0,0,0,4.226.335,2.842,2.842,0,0,0,1.023-1.588l-1.166-.144a2.166,2.166,0,0,1-.7,1.042m-13.443,1.105V63.485a4.131,4.131,0,0,1,.182-1.393,1.424,1.424,0,0,1,.587-.735,1.648,1.648,0,0,1,.881-.25,1.048,1.048,0,0,1,.9.376,1.908,1.908,0,0,1,.277,1.13v4.33h1.129V63.07a2.058,2.058,0,0,1,.465-1.5,1.581,1.581,0,0,1,1.167-.467,1.242,1.242,0,0,1,.677.182.943.943,0,0,1,.4.48,3.09,3.09,0,0,1,.11.975v4.2h1.124V62.368a2.348,2.348,0,0,0-.534-1.692,2.025,2.025,0,0,0-1.524-.55,2.4,2.4,0,0,0-2.059,1.168,1.65,1.65,0,0,0-.668-.86,2.2,2.2,0,0,0-1.215-.308,2.342,2.342,0,0,0-1.186.3,2.38,2.38,0,0,0-.835.788v-.936h-1.009v6.666Zm-6.838-5.367a1.8,1.8,0,0,1,1.309-.521,1.73,1.73,0,0,1,1.4.654,2.244,2.244,0,0,1,.426,1.262h-3.721a2.064,2.064,0,0,1,.587-1.394m2.426,4.262a1.732,1.732,0,0,1-1.061.327,1.85,1.85,0,0,1-1.393-.584A2.568,2.568,0,0,1,194.1,63.9h4.971c0-.134.007-.234.007-.3a3.618,3.618,0,0,0-.848-2.561,2.848,2.848,0,0,0-2.184-.91,2.937,2.937,0,0,0-2.248.929,3.69,3.69,0,0,0-.866,2.611,3.52,3.52,0,0,0,.856,2.526,3.465,3.465,0,0,0,4.228.335,2.85,2.85,0,0,0,1.023-1.588l-1.168-.144a2.165,2.165,0,0,1-.7,1.042m-5.466.139a.755.755,0,0,1-.386-.082.478.478,0,0,1-.2-.219,2,2,0,0,1-.059-.622v-3.9h1.136v-.879h-1.136V57.95l-1.123.677v1.65h-.829v.879h.829v3.835a4.055,4.055,0,0,0,.138,1.333,1.085,1.085,0,0,0,.477.511,1.926,1.926,0,0,0,.954.2,4.237,4.237,0,0,0,.854-.1l-.164-1a3.655,3.655,0,0,1-.5.045m-7.98.578a3.135,3.135,0,0,0,1.981.54,3.452,3.452,0,0,0,1.405-.273,2.133,2.133,0,0,0,.951-.773,1.893,1.893,0,0,0,.329-1.063,1.649,1.649,0,0,0-.27-.966,1.692,1.692,0,0,0-.744-.594,14.017,14.017,0,0,0-1.671-.524q-.83-.226-1-.288a1,1,0,0,1-.434-.3.62.62,0,0,1-.137-.4.744.744,0,0,1,.333-.6,1.841,1.841,0,0,1,1.11-.258,1.6,1.6,0,0,1,1.02.289,1.2,1.2,0,0,1,.436.8L188.149,62a2.4,2.4,0,0,0-.39-1.032,1.871,1.871,0,0,0-.875-.611,3.855,3.855,0,0,0-1.378-.227,3.43,3.43,0,0,0-.975.136,2.314,2.314,0,0,0-.72.33,1.841,1.841,0,0,0-.555.631,1.725,1.725,0,0,0-.2.824,1.678,1.678,0,0,0,.247.894,1.66,1.66,0,0,0,.729.634,10.531,10.531,0,0,0,1.722.543,4.778,4.778,0,0,1,1.156.383.685.685,0,0,1,.333.6.949.949,0,0,1-.377.744,1.764,1.764,0,0,1-1.154.317,1.82,1.82,0,0,1-1.2-.359,1.554,1.554,0,0,1-.525-1.029l-1.117.176a2.516,2.516,0,0,0,.869,1.6m-6.165,3.094a1.627,1.627,0,0,0,.928-.261,2.215,2.215,0,0,0,.69-.819,13.3,13.3,0,0,0,.635-1.512l2.535-6.779h-1.13L179.8,64.162a15.178,15.178,0,0,0-.465,1.519q-.213-.809-.483-1.544l-1.386-3.861h-1.218l2.53,6.677c-.046.122-.08.214-.1.277a5.558,5.558,0,0,1-.344.841,1.038,1.038,0,0,1-.371.351,1.235,1.235,0,0,1-.6.126,2.514,2.514,0,0,1-.646-.1l.126,1.06a2.264,2.264,0,0,0,.729.139m-6.688-3.094a3.135,3.135,0,0,0,1.979.54,3.453,3.453,0,0,0,1.406-.273,2.131,2.131,0,0,0,.951-.773,1.9,1.9,0,0,0,.33-1.063,1.649,1.649,0,0,0-.27-.966,1.694,1.694,0,0,0-.743-.594,14,14,0,0,0-1.674-.524q-.827-.226-1-.288a1,1,0,0,1-.432-.3.618.618,0,0,1-.139-.4.748.748,0,0,1,.333-.6,1.848,1.848,0,0,1,1.111-.258,1.594,1.594,0,0,1,1.02.289,1.212,1.212,0,0,1,.437.8L175.3,62a2.4,2.4,0,0,0-.388-1.032,1.876,1.876,0,0,0-.876-.611,3.855,3.855,0,0,0-1.378-.227,3.434,3.434,0,0,0-.975.136,2.325,2.325,0,0,0-.719.33,1.812,1.812,0,0,0-.555.631,1.709,1.709,0,0,0-.2.824,1.646,1.646,0,0,0,.976,1.529,10.635,10.635,0,0,0,1.723.543,4.781,4.781,0,0,1,1.155.383.685.685,0,0,1,.332.6.95.95,0,0,1-.377.744,1.764,1.764,0,0,1-1.154.317,1.824,1.824,0,0,1-1.2-.359,1.555,1.555,0,0,1-.523-1.029l-1.117.176a2.513,2.513,0,0,0,.869,1.6m-3.581.389V63.454a4.4,4.4,0,0,1,.188-1.319,1.2,1.2,0,0,1,.421-.619,1.081,1.081,0,0,1,.665-.222,1.621,1.621,0,0,1,.827.245l.39-1.048a2.208,2.208,0,0,0-1.161-.364,1.259,1.259,0,0,0-.726.227,2.761,2.761,0,0,0-.718.935V60.277h-1.016v6.666ZM160.334,61.7a1.862,1.862,0,0,1,2.8,0,2.756,2.756,0,0,1,.562,1.873,2.912,2.912,0,0,1-.559,1.952,1.86,1.86,0,0,1-2.805,0,3.568,3.568,0,0,1,0-3.832m-.857,4.5a2.994,2.994,0,0,0,2.262.9,3.274,3.274,0,0,0,1.61-.409,2.725,2.725,0,0,0,1.123-1.146,4.4,4.4,0,0,0,.386-2.023,3.428,3.428,0,0,0-.872-2.489,2.99,2.99,0,0,0-2.247-.9,3.1,3.1,0,0,0-2.1.742,3.437,3.437,0,0,0-1.03,2.743,3.587,3.587,0,0,0,.863,2.585m-6.021-4.5a1.621,1.621,0,0,1,1.279-.644,1.579,1.579,0,0,1,1.253.622,2.978,2.978,0,0,1,.517,1.927,2.924,2.924,0,0,1-.54,1.917,1.614,1.614,0,0,1-2.724-.229,3.455,3.455,0,0,1-.327-1.733,2.815,2.815,0,0,1,.541-1.86m-.528,4.408a2.12,2.12,0,0,0,1.851.986,2.647,2.647,0,0,0,2.033-.936,3.807,3.807,0,0,0,.848-2.648,4.473,4.473,0,0,0-.2-1.355,3.357,3.357,0,0,0-.556-1.083,2.37,2.37,0,0,0-.9-.7,2.811,2.811,0,0,0-1.164-.248,2.235,2.235,0,0,0-1.827.9V57.743h-1.13v9.2h1.048Zm-3.935-2.1a2.732,2.732,0,0,1-.183,1.13,1.753,1.753,0,0,1-.747.781,2.336,2.336,0,0,1-1.161.286,1.47,1.47,0,0,1-1-.3.958.958,0,0,1-.342-.753.972.972,0,0,1,.157-.536.983.983,0,0,1,.446-.367,4.316,4.316,0,0,1,.986-.226,8.334,8.334,0,0,0,1.844-.426Zm.32,2.932h1.18a2.526,2.526,0,0,1-.286-.8,16.086,16.086,0,0,1-.072-1.992V62.644a6.309,6.309,0,0,0-.056-1.042,1.8,1.8,0,0,0-.351-.768,1.833,1.833,0,0,0-.785-.5,3.984,3.984,0,0,0-1.388-.2,4.446,4.446,0,0,0-1.513.237,2.172,2.172,0,0,0-1,.671,2.747,2.747,0,0,0-.5,1.145l1.1.151a1.71,1.71,0,0,1,.562-.988,1.99,1.99,0,0,1,1.177-.28,1.9,1.9,0,0,1,1.287.383,1.247,1.247,0,0,1,.32.972c0,.043,0,.141-.007.3a10.224,10.224,0,0,1-2.015.389,8.231,8.231,0,0,0-1,.17,2.733,2.733,0,0,0-.813.37,1.85,1.85,0,0,0-.584.65,1.821,1.821,0,0,0-.222.894,1.771,1.771,0,0,0,.589,1.371,2.419,2.419,0,0,0,1.688.537,3.489,3.489,0,0,0,1.246-.22,4.218,4.218,0,0,0,1.208-.753,2.439,2.439,0,0,0,.226.822m-5.88,0V65.858H138.9V57.743h-1.217v9.2Z" transform="translate(-38.367 -16.047)"/><path class="a" d="M26.086,42.687h-.009c-1.2-.01-1.888-2-2.129-2.861-.032-.154-2.112-11.01-2.991-16.1-.729-4.234-3.333-4.007-3.361-4.007L0,19.718V18.6H17.537c-.022,0,3.615-.322,4.52,4.93.877,5.083,2.955,15.929,2.977,16.038a3.939,3.939,0,0,0,1.059,2s.363-.149.836-1.726c1.529-5.1,5.241-27.423,5.277-27.647.219-.85,1-3.464,2.418-3.469h0c1,0,1.766,1.183,2.473,3.835,1.517,5.69,4.889,17.215,5.113,17.981.351.755,1,1.577,1.331,1.528.06-.005.6-.115,1.14-2.262,1.336-5.328,2.424-8.413,2.435-8.444a4.254,4.254,0,0,1,3.69-2.587H88.779V19.9H50.811a3.152,3.152,0,0,0-2.65,1.877h0s-1.071,3.041-2.392,8.31c-.321,1.279-.889,2.993-2.124,3.1-1.316.122-2.287-1.823-2.463-2.214l-.027-.073c-.035-.121-3.566-12.176-5.132-18.047-.78-2.927-1.389-3.007-1.394-3.007-.3,0-.969,1.193-1.329,2.583C33.155,13.3,29.547,35,28,40.166,27.673,41.249,27.122,42.687,26.086,42.687Z" transform="translate(0 -2.432)"/><path class="a" d="M262.843,43l.009-16.47h22.942V22.738H262.751V16.6h29.187V42.991Zm6.147-10.328,0,4.185,16.807,0V32.669Z" transform="translate(-73.217 -4.625)"/><path class="a" d="M143.518,11.957V0h-6.142V38.373h6.142V18.1h20.132V38.373h6.143V11.957Z" transform="translate(-38.281)"/><path class="a" d="M233.669,43H190.676V16.6h30.151V32.669H196.818v4.187h30.708V16.6h11.447v6.142h-5.3Zm-36.851-16.47h17.866V22.738H196.818Z" transform="translate(-53.133 -4.625)"/><g transform="translate(219.766 0.299)"><path class="a" d="M308.06.414a3.288,3.288,0,1,1-.02,6.576,3.319,3.319,0,0,1-3.379-3.3A3.3,3.3,0,0,1,308.041.414Zm-.04.659A2.557,2.557,0,0,0,305.5,3.692,2.552,2.552,0,0,0,308.06,6.31a2.51,2.51,0,0,0,2.5-2.6,2.549,2.549,0,0,0-2.518-2.639Zm-.5,4.318h-.76V2.113a8.792,8.792,0,0,1,1.259-.1,1.747,1.747,0,0,1,1.12.26.826.826,0,0,1,.34.7.846.846,0,0,1-.68.779v.04c.32.1.48.36.58.8a2.955,2.955,0,0,0,.239.8h-.8a2.573,2.573,0,0,1-.26-.8c-.061-.34-.26-.5-.68-.5h-.36Zm.02-1.839h.36c.42,0,.76-.141.76-.48,0-.3-.22-.5-.7-.5a1.849,1.849,0,0,0-.42.04Z" transform="translate(-304.662 -0.414)"/></g></svg>