<svg width="160" height="160" viewBox="0 0 160 160" fill="none" xmlns="http://www.w3.org/2000/svg">
<g clip-path="url(#clip0_91_268)">
<path d="M-51.139 71.2808C-50.1942 71.3474 -46.7527 75.1801 -40.8142 82.7788C-32.514 93.4437 -25.7658 101.626 -20.5697 107.325C0.687099 130.654 19.3964 141.286 35.5584 139.219C52.1251 137.12 54.8582 146.602 43.7574 167.665C38.2239 178.196 31.0202 188.928 22.1463 199.859C10.9781 181.962 -2.82196 173.897 -19.2538 175.663C-25.6646 176.33 -31.9573 178.496 -38.1319 182.162C-43.5641 185.395 -48.0686 189.228 -51.6451 193.66C-62.4085 187.328 -73.4923 189.861 -84.8968 201.259C-92.2186 208.591 -98.3763 217.756 -103.37 228.755C-105.057 223.122 -106.44 216.29 -107.52 208.258C-109.679 192.194 -109.241 178.18 -106.204 166.215C-101.615 148.018 -94.5129 129.621 -84.8968 111.024C-73.1212 88.128 -61.8686 74.8802 -51.139 71.2808Z" fill="#5DC1CF"/>
<path d="M-51.1391 71.2808C-50.1943 71.3474 -46.7528 75.1801 -40.8144 82.7788C-32.5141 93.4437 -25.7659 101.626 -20.5698 107.325C0.686989 130.654 19.3963 141.286 35.5582 139.219C52.125 137.12 54.8581 146.602 43.7573 167.665C38.2238 178.196 31.0201 188.928 22.1462 199.859C18.8396 194.594 15.2462 190.144 11.366 186.512C8.46427 169.448 -1.59052 150.534 -18.7984 129.771C-24.973 122.339 -31.0126 115.957 -36.9173 110.624C-42.3158 105.758 -45.4537 103.609 -46.331 104.175C-53.4503 108.741 -58.832 123.589 -62.476 148.718C-63.3196 154.617 -64.2137 161.816 -65.1584 170.314C-65.8333 175.18 -66.4743 175.98 -67.0817 172.714C-69.5785 159.249 -69.0049 143.252 -65.3609 124.722L-62.0712 109.424C-61.3289 105.892 -61.4469 104.492 -62.4254 105.225C-68.1951 109.624 -75.7194 120.806 -84.9981 138.77C-94.0744 156.3 -100.097 170.964 -103.066 182.762C-103.775 184.295 -104.484 184.895 -105.192 184.562C-105.901 184.262 -106.457 183.212 -106.862 181.412C-107.908 177.046 -107.689 171.981 -106.204 166.215C-101.616 148.018 -94.5131 129.621 -84.8969 111.024C-73.1213 88.128 -61.8687 74.8802 -51.1391 71.2808Z" fill="#50A8B4"/>
<path d="M-38.1318 90.7771C-43.0242 83.3117 -46.2634 78.9291 -47.8492 77.6293C-52.5392 73.7633 -59.9284 79.7623 -70.017 95.6263C-77.9124 108.091 -86.1789 124.272 -94.8166 144.168C-101.227 158.932 -104.669 177.529 -105.141 199.959C-105.58 219.822 -103.91 234.387 -100.131 243.652C-99.5234 245.118 -99.321 246.185 -99.5234 246.851C-99.7259 247.451 -100.198 247.518 -100.941 247.051C-102.898 245.918 -104.939 242.868 -107.065 237.903C-113.509 222.672 -115.145 201.725 -111.974 175.063C-109.005 150.467 -99.0848 125.105 -82.2143 98.9757C-76.1072 89.4773 -69.7808 81.0287 -63.2351 73.63C-57.5666 67.1977 -53.4333 63.3817 -50.8353 62.1819C-46.4152 60.1156 -43.2435 59.3824 -41.3203 59.9823C-39.4983 60.5488 -38.6717 62.3652 -38.8404 65.4313C-39.0091 68.7974 -38.5367 71.8136 -37.4232 74.4798C-35.8712 78.1459 -32.1597 84.3615 -26.2887 93.1267C-19.1357 103.825 -9.51949 113.607 2.55977 122.472C16.1236 132.47 26.5833 136.103 33.9388 133.37L38.4432 138.319C40.7039 141.552 39.9953 143.018 36.3176 142.718C13.4412 140.785 -6.22975 130.421 -22.6953 111.624C-27.2504 106.458 -32.3958 99.509 -38.1318 90.7771Z" fill="#F9BE00"/>
<path d="M-38.1318 90.7775C-43.0242 83.3121 -46.2633 78.9295 -47.8491 77.6297L-49.165 76.8799C-48.0853 76.3133 -46.8875 76.1133 -45.5716 76.28C-43.5472 76.6132 -41.8601 77.963 -40.5105 80.3293C-36.3604 87.7947 -30.1352 96.4933 -21.8349 106.425C-10.1605 120.456 -2.11331 125.755 2.30675 122.322C8.51509 126.922 14.2342 130.204 19.464 132.171C25.3012 134.37 30.1261 134.77 33.9389 133.37L38.4433 138.32C40.7039 141.552 39.9954 143.019 36.3176 142.719C13.4413 140.786 -6.22971 130.421 -22.6953 111.624C-27.2503 106.458 -32.3958 99.5094 -38.1318 90.7775Z" fill="#D7A400"/>
<path d="M129.139 14.3398C142.905 17.106 156.941 26.4545 171.247 42.3852C179.345 51.417 189.214 64.9981 200.855 83.1284C207.097 92.7934 211.18 105.775 213.103 122.072C214.081 130.204 214.419 137.369 214.115 143.568C200.214 128.671 189.99 121.505 183.445 122.072C180.475 122.339 177.726 124.105 175.195 127.371C173.407 129.671 171.112 133.72 168.312 139.519C157.312 132.42 146.768 132.47 136.68 139.669C132.833 142.435 129.662 145.851 127.165 149.917C124.837 153.717 123.689 157.049 123.723 159.916L99.4297 141.219L118.46 91.127C120.18 83.8283 121.901 75.1464 123.622 65.0814C127.097 44.9514 128.936 28.0376 129.139 14.3398Z" fill="#5DC1CF"/>
<path d="M129.139 14.3398C142.905 17.106 156.941 26.4545 171.247 42.3852C179.345 51.417 189.214 64.9981 200.855 83.1284C205.207 89.8606 208.531 98.3758 210.825 108.674C201.04 93.1767 188.641 77.246 173.626 60.8821C157.025 42.7518 147.409 35.9862 144.777 40.5855C144.238 41.552 146.616 47.5843 151.914 58.6825C157.92 71.2804 161.378 80.4955 162.289 86.3278C158.78 77.2294 154.495 68.5641 149.434 60.3322C143.866 51.2337 140.29 47.8343 138.704 50.1339C133.576 57.4993 131.703 88.3275 133.086 142.618C130.218 145.318 127.907 148.334 126.153 151.667C124.499 154.833 123.689 157.583 123.723 159.916L99.4297 141.219L118.46 91.127C120.18 83.8283 121.901 75.1464 123.622 65.0814C127.097 44.9514 128.936 28.0376 129.139 14.3398Z" fill="#50A8B4"/>
<path d="M126.658 9.39095C130.033 9.15766 135.887 11.4073 144.221 16.1398C154.208 21.8055 164.01 29.2876 173.626 38.5861C185.671 50.1842 195.811 64.6151 204.043 81.8789C213.626 102.009 218.248 121.706 217.911 140.969C217.81 146.601 217.557 149.934 217.152 150.967C216.78 151.934 216.173 151.084 215.33 148.418L207.89 119.973C200.939 94.6767 190.547 73.2136 176.713 55.5833C164.398 39.8859 151.256 29.3543 137.287 23.9885C134.723 22.9887 133.086 24.5384 132.378 28.6377L131.264 45.4349C130.151 65.8315 125.478 81.4289 117.245 92.2271C115.254 94.8267 113.432 96.7764 111.779 98.0762L109.855 99.226C114.95 91.5273 118.712 78.6961 121.142 60.7324C123.301 44.8017 123.672 32.837 122.255 24.8384C121.108 18.4061 120.872 14.2068 121.547 12.2405C122.12 10.5408 123.824 9.59092 126.658 9.39095Z" fill="#F9BE00"/>
<path d="M137.287 23.9883L135.263 23.5384L133.39 23.4884C133.289 22.7552 133.289 22.2219 133.39 21.8887C133.593 21.2554 134.436 20.7555 135.921 20.3889C137.001 20.1556 139.261 20.7888 142.703 22.2886C146.819 24.1216 151.155 26.6545 155.71 29.8873C168.599 39.0191 179.514 51.0505 188.456 65.9813C197.836 81.612 204.483 95.1931 208.396 106.725C212.513 118.856 214.099 130.121 213.154 140.519L207.89 119.972C200.94 94.6765 190.548 73.2134 176.714 55.583C164.398 39.8857 151.256 29.3541 137.287 23.9883Z" fill="#D7A400"/>
<path d="M128.025 69.0311C125.731 78.0629 122.137 85.7949 117.245 92.2272C115.254 94.8268 113.432 96.7764 111.779 98.0762L109.855 99.226C112.926 94.6268 115.558 87.8613 117.751 78.9294C119.674 71.2307 121.091 62.7155 122.002 53.3837C122.812 58.2162 124.28 59.2494 126.405 56.4832C127.924 54.5168 129.526 51.1007 131.213 46.2349C130.707 55.1001 129.645 62.6988 128.025 69.0311Z" fill="#D7A400"/>
<path d="M164.567 74.5801C175.196 70.2808 184.711 68.6811 193.112 69.7809C217.136 72.947 229.738 82.3788 230.919 98.0762C231.729 108.541 227.696 115.39 218.823 118.623C211.703 121.189 203.724 121.139 194.883 118.473C190.868 117.273 185.217 117.056 177.929 117.823C170.337 118.589 162.728 120.256 155.103 122.822C136.006 129.254 124.365 138.319 120.181 150.018C118.224 149.384 116.081 148.384 113.753 147.018C109.131 144.252 105.925 140.986 104.137 137.22C98.4013 125.188 107.882 110.424 132.581 92.927C144.525 84.4951 155.187 78.3794 164.567 74.5801Z" fill="#F9BE00"/>
<path d="M120.181 150.018C118.224 149.384 116.099 148.385 113.804 147.018C109.182 144.252 105.96 140.986 104.138 137.22C98.3678 125.222 107.782 110.508 132.379 93.0771C133.627 101.142 136.259 106.308 140.274 108.575C144.829 111.107 152.286 110.808 162.644 107.675C168.92 105.775 176.293 105.058 184.761 105.525L205.259 107.775C212.581 108.608 217.996 108.541 221.505 107.575C226.229 106.242 229.367 103.075 230.919 98.0763C232.201 108.341 228.304 115.123 219.228 118.423C211.839 121.122 203.724 121.139 194.884 118.473C190.869 117.273 185.217 117.056 177.929 117.823C170.337 118.59 162.729 120.256 155.103 122.822C136.006 129.254 124.365 138.32 120.181 150.018Z" fill="#D7A400"/>
<path d="M110.564 54.9332L111.526 56.133C112.336 57.2995 113.112 58.7326 113.854 60.4323C116.216 65.898 117.836 73.0968 118.713 82.0287C123.133 84.095 126.895 87.1278 129.999 91.1272C133.103 95.1598 134.942 99.4258 135.516 103.925C137.743 115.29 135.6 124.622 129.088 131.92C127.064 134.22 124.736 136.17 122.104 137.769L118.713 139.519C119.995 149.384 122.981 159.599 127.671 170.164C131.754 179.296 135.954 186.378 140.273 191.41L150.902 203.958C156.773 211.557 161.614 219.272 165.427 227.104C176.899 250.834 178.654 274.53 170.691 298.193C162.289 322.988 151.222 340.802 137.49 351.634C124.432 361.932 106.06 368.031 82.3738 369.931C80.0457 372.164 76.3511 374.213 71.2899 376.08C64.8454 378.513 58.1985 379.662 51.3491 379.529C31.8131 379.162 14.892 368.781 0.585811 348.384C-6.16238 338.753 -10.2619 326.605 -11.7128 311.94C-13.3661 294.777 -10.3969 279.379 -2.80515 265.748C-1.1181 254.35 1.81736 240.536 6.00124 224.305L17.237 182.612C21.4883 166.615 24.4406 153.6 26.094 143.568C28.2871 130.304 28.8439 119.122 27.7641 110.024L24.8287 85.978C23.9851 77.6127 23.8333 70.7139 24.3732 65.2815C25.6891 51.6171 32.2854 40.8522 44.1622 32.9869C51.8552 27.921 59.6999 25.1048 67.6965 24.5383C75.2882 24.005 82.4751 25.5381 89.257 29.1375C93.7108 31.5038 98.1477 35.1532 102.568 40.0857C107.595 45.6847 110.261 50.6339 110.564 54.9332Z" fill="#F9BE00"/>
<path d="M98.7721 138.569C105.453 137.969 111.931 136.336 118.207 133.67C124.618 130.937 129.915 127.504 134.099 123.372C133.053 126.904 130.185 130.654 125.495 134.62L118.713 139.519C120.164 150.617 123.673 161.932 129.24 173.463C125.394 177.529 119.034 179.146 110.16 178.312C101.691 177.713 93.3905 175.73 85.2589 172.363C77.0936 168.997 69.9911 164.615 63.9515 159.216C57.6082 153.55 53.0869 147.318 50.3876 140.519C47.4522 133.153 46.8786 125.605 48.6668 117.873C50.0502 120.839 51.906 123.355 54.2341 125.421C57.8106 128.621 61.8933 130.037 66.4821 129.671C66.9544 130.037 66.6845 129.121 65.6723 126.921C69.0126 131.487 73.7364 134.753 79.8435 136.719C85.4782 138.552 91.7878 139.169 98.7721 138.569Z" fill="#D7A400"/>
<path d="M103.327 331.987C106.161 332.787 114.833 330.904 129.341 326.338C142.973 322.039 154.849 317.64 164.972 313.14C156.739 332.271 146.043 346.218 132.884 354.983C120.467 363.249 103.631 368.231 82.3738 369.931C79.7758 372.397 76.0305 374.63 71.1381 376.63C64.7948 379.229 58.2491 380.496 51.5009 380.429C32.4035 380.229 15.4318 369.548 0.585811 348.384C-6.16238 338.753 -10.2619 326.605 -11.7128 311.941C-13.3661 294.777 -10.3969 279.379 -2.80515 265.748C-0.713214 251.651 3.94304 231.354 11.1636 204.858C18.8565 176.663 23.6646 157.166 25.5878 146.368C25.4866 149.468 26.5157 153.534 28.6751 158.566C30.6996 163.299 31.4419 168.298 30.902 173.564C24.5587 185.028 19.3795 198.093 15.3643 212.757C11.4167 227.055 9.44281 239.603 9.44281 250.401C9.44281 251.767 10.067 252.201 11.3154 251.701L15.0607 249.501C16.5115 248.601 17.3888 248.368 17.6925 248.801C18.1311 249.434 17.7093 251.384 16.4272 254.65C8.05944 276.113 6.423 294.643 11.5179 310.241C15.8367 323.572 24.5081 333.57 37.5321 340.236C49.1728 346.202 61.5726 348.368 74.7315 346.735C87.8905 345.102 97.4223 340.186 103.327 331.987Z" fill="#D7A400"/>
<path d="M38.6459 46.7847C37.6337 48.7177 37.2963 50.7174 37.6337 52.7837C37.9036 54.5834 38.5953 56.0499 39.7087 57.183C33.5341 57.9495 30.2275 66.2982 29.7889 82.2288C29.6539 87.328 30.3625 102.159 31.9146 126.721C32.0495 128.521 31.4422 129.954 30.0926 131.021C28.7767 132.121 28.0681 131.804 27.9669 130.071L28.2706 122.372C28.473 117.94 28.2874 113.724 27.7138 109.724L24.7278 96.1265C23.0744 88.1278 22.2309 80.929 22.1972 74.5301C22.0285 54.5668 29.3503 40.7191 44.1625 32.987C52.0242 28.8544 59.2447 26.2882 65.8242 25.2883C72.8761 24.2218 79.4049 24.9051 85.4108 27.338C77.7179 26.3048 71.8301 26.3048 67.7474 27.338C62.4839 28.6378 59.1435 31.7706 57.7264 36.7364C47.6378 38.3361 41.2777 41.6856 38.6459 46.7847Z" fill="#D7A400"/>
<path d="M102.315 145.068C108.591 143.968 114.057 142.119 118.713 139.519C119.995 149.384 122.981 159.599 127.671 170.164C131.754 179.296 135.955 186.378 140.274 191.411L150.902 203.958C156.773 211.557 161.615 219.273 165.427 227.105C176.899 250.834 178.654 274.53 170.691 298.193C162.289 323.089 151.071 341.086 137.034 352.184C123.572 362.849 105.352 368.764 82.3741 369.931C103.8 352.7 109.029 330.604 98.0636 303.642C94.2846 294.31 88.8186 285.112 81.6655 276.046C76.132 269.048 71.3071 264.015 67.1907 260.949C58.4855 251.55 53.6943 233.004 52.817 205.308C52.041 180.446 54.3354 156.633 59.7002 133.87L66.0772 137.07C68.2704 137.903 70.0924 137.803 71.5432 136.77C79.5061 144.435 89.7633 147.201 102.315 145.068Z" fill="#FFF3C2"/>
<path d="M102.315 145.068C108.591 143.968 114.057 142.119 118.713 139.519C119.725 147.318 121.868 155.467 125.141 163.965C127.941 171.297 131.197 177.963 134.909 183.962C130.421 186.795 124.888 188.311 118.308 188.511C111.627 188.678 104.694 187.461 97.5068 184.862C80.8388 178.863 67.2581 167.631 56.7646 151.167L58.0805 142.219C58.4854 139.486 59.0253 136.703 59.7001 133.87L66.0771 137.07C68.2703 137.903 70.0923 137.803 71.5432 136.77C79.506 144.435 89.7633 147.201 102.315 145.068Z" fill="#DBD2A9"/>
<path d="M29.7886 130.771C31.7118 128.204 34.0568 128.921 36.8236 132.92C39.5229 136.753 41.4798 141.802 42.6945 148.068C44.0104 155 43.8248 160.799 42.1378 165.465C40.1133 171.031 36.0982 173.947 30.0923 174.213C18.9578 174.713 7.84013 180.962 -3.26064 192.96C-8.79415 198.959 -15.0531 207.575 -22.0375 218.806L-27.2504 226.955C-29.4099 230.021 -31.5862 232.27 -33.7793 233.704C-39.684 237.536 -47.3263 236.67 -56.7063 231.104C-65.1415 226.105 -69.6459 218.556 -70.2195 208.458C-70.6582 200.892 -69.0217 193.077 -65.3102 185.012C-60.1479 173.78 -49.4857 164.182 -33.3238 156.216C-22.5267 150.884 -11.4259 147.068 -0.0215086 144.768C9.15603 142.902 14.8582 141.536 17.0851 140.669C22.0451 138.769 26.2796 135.47 29.7886 130.771Z" fill="#F9BE00"/>
<path d="M18.2489 46.1346C25.672 45.8347 33.4999 47.4344 41.7326 50.9338C42.6437 51.3004 43.2847 51.9503 43.6559 52.8835C43.9933 53.7834 43.9764 54.6665 43.6053 55.5331C43.2341 56.4329 42.593 57.0661 41.682 57.4328L38.949 57.3828C31.6947 54.3166 24.8284 52.9335 18.3502 53.2335C14.335 53.4001 8.3966 54.5499 0.534964 56.6829L-8.32203 59.5324C-12.101 60.5989 -16.5886 61.1821 -21.7847 61.2821C-33.2903 61.5487 -44.3573 56.4163 -54.9857 45.8847C-63.3198 37.5527 -69.6293 28.1543 -73.9144 17.6894C-74.2856 16.7895 -74.2687 15.8897 -73.8638 14.9898C-73.4926 14.09 -72.8516 13.4734 -71.9406 13.1401L-69.2075 13.1901C-68.2965 13.5567 -67.6723 14.19 -67.3349 15.0898C-63.3198 24.8882 -57.1958 33.8034 -48.963 41.8354C-39.5493 51.0005 -30.7429 55.1665 -22.5438 54.3333C-18.8661 53.9667 -15.104 53.3501 -11.2575 52.4836L-1.33766 49.934C7.16506 47.6011 13.6939 46.3346 18.2489 46.1346Z" fill="#FFF3C2"/>
<path d="M30.5984 51.034C33.7363 51.6339 36.4862 52.2838 38.848 52.9837C42.3233 53.9835 43.9092 54.8334 43.6055 55.5333C43.2343 56.4331 42.5933 57.0663 41.6823 57.4329L38.9493 57.383C32.5385 54.6834 26.4988 53.267 20.8304 53.1337C16.579 53.067 11.4673 53.8002 5.49512 55.3333C6.97972 53.0337 11.0961 51.5673 17.8443 50.934C23.2091 50.4008 27.4605 50.4341 30.5984 51.034Z" fill="#DBD2A9"/>
<path d="M66.886 102.326C64.7603 102.626 62.3815 102.659 59.7498 102.426C54.4524 101.992 50.5047 100.509 47.9067 97.9763C45.2074 91.2107 44.1446 85.545 44.7182 80.9791C45.2918 76.4465 47.3668 73.8303 50.9434 73.1304C54.4862 72.4639 58.282 75.93 62.3309 83.5287C66.3124 91.0608 67.8307 97.3264 66.886 102.326Z" fill="white"/>
<path d="M115.271 84.7782C112.032 80.9122 109.485 75.1131 107.629 67.3811C105.706 59.3824 106.026 55.0165 108.591 54.2833C110.075 53.85 111.948 56.4162 114.208 61.982C116.604 67.9477 118.139 74.5632 118.814 81.8287C118.409 82.9285 117.228 83.9117 115.271 84.7782Z" fill="white"/>
<path d="M46.6419 35.3366C46.4732 33.2036 46.8612 29.8208 47.8059 25.1882C48.8519 20.1224 49.9485 17.3729 51.0957 16.9396C52.3103 16.473 54.6891 17.4395 58.2319 19.8391C61.606 22.1388 64.2884 24.505 66.2791 26.938C66.7852 28.5044 66.5996 30.1208 65.7224 31.7871C64.8788 33.4202 63.5292 34.7533 61.6734 35.7865C57.1859 38.3194 52.1754 38.1694 46.6419 35.3366Z" fill="#F9BE00"/>
<path d="M46.6419 35.3366C46.4732 33.2036 46.8612 29.8208 47.8059 25.1883C48.8519 20.1224 49.9485 17.3729 51.0957 16.9396L52.3103 16.8896C52.3778 20.789 53.0695 24.7217 54.3854 28.6877C56.0725 33.6868 58.2319 36.2031 60.8637 36.2364C58.9067 37.1363 56.7641 37.5529 54.436 37.4862C51.8717 37.3862 49.2736 36.6697 46.6419 35.3366Z" fill="#D7A400"/>
<path d="M-48.5579 78.4793C-49.4689 77.6794 -50.5992 77.4294 -51.9488 77.7294C-56.8413 78.8625 -63.5726 86.6612 -72.1428 101.125C-79.2284 113.123 -86.4658 127.604 -93.8551 144.568C-100.165 159.132 -103.556 177.579 -104.028 199.909C-104.467 219.706 -102.847 234.153 -99.1693 243.252C-98.5957 244.652 -98.2077 245.918 -98.0052 247.051C-97.7353 248.451 -97.8196 249.317 -98.2583 249.651C-99.068 250.251 -100.62 249.417 -102.915 247.151C-106.997 243.152 -110.169 236.42 -112.429 226.954C-115.77 212.957 -116.175 195.426 -113.644 174.363C-111.991 160.632 -107.891 146.385 -101.346 131.62C-96.6893 121.122 -90.6159 110.057 -83.1255 98.4259C-76.8834 88.7942 -70.4895 80.2623 -63.9437 72.8302C-58.174 66.3646 -53.9564 62.4986 -51.2909 61.2321C-45.7911 58.6992 -41.9784 58.116 -39.8527 59.4824C-38.3006 60.5156 -37.6089 62.5319 -37.7776 65.5314C-37.9463 68.5309 -37.3053 71.6304 -35.8544 74.8299C-34.0324 78.8292 -30.3209 84.7449 -24.7199 92.5769C-17.9717 101.942 -9.77266 110.574 -0.122756 118.473C10.6069 127.238 19.6663 132.07 27.0556 132.97L25.436 134.87C17.2032 133.47 7.48582 128.121 -3.71617 118.823C-13.636 110.591 -21.4639 102.209 -27.1999 93.6767C-33.4082 84.4116 -37.2209 78.3126 -38.638 75.3798C-39.9877 72.5469 -40.5781 69.4974 -40.4094 66.2313C-40.3082 63.865 -40.6625 62.4153 -41.4723 61.882C-42.8219 60.9488 -45.7911 61.5321 -50.3799 63.6317C-52.6743 64.6982 -56.6051 68.3476 -62.1723 74.5799C-68.6506 81.8787 -74.9264 90.1773 -80.9998 99.4757C-98.0052 125.438 -107.976 150.684 -110.911 175.213C-111.923 183.745 -112.429 191.727 -112.429 199.159C-112.429 212.89 -110.995 224.155 -108.127 232.953C-106.609 237.553 -104.568 241.569 -102.004 245.002C-100.958 246.368 -100.451 246.735 -100.485 246.101C-100.519 245.635 -100.738 244.952 -101.143 244.052C-102.661 240.252 -103.893 234.853 -104.838 227.854C-105.816 220.456 -106.305 212.507 -106.305 204.008C-106.305 193.277 -105.513 182.979 -103.927 173.113C-102.138 161.915 -99.4392 152.134 -95.8289 143.768C-89.3507 128.838 -83.0917 115.956 -77.0521 105.125C-66.8286 86.6612 -58.6633 76.7129 -52.5562 75.2798C-50.7679 74.8465 -48.9796 75.3631 -47.1914 76.8295C-46.0442 77.7627 -44.6777 79.3458 -43.0918 81.5787L-38.1319 88.8775C-30.2028 100.942 -23.1172 110.091 -16.8751 116.323C-5.97681 127.288 6.28802 134.737 19.9194 138.669C18.5697 139.302 17.1863 139.836 15.7692 140.269C2.34032 136.236 -9.53648 128.654 -19.8612 117.523C-24.4162 112.624 -31.0969 103.458 -39.9033 90.0273L-44.7114 82.9285C-46.2635 80.7955 -47.5456 79.3124 -48.5579 78.4793Z" fill="#0D131A"/>
<path d="M169.577 140.119L168.767 141.269L167.603 140.719C161.597 136.686 156.131 134.753 151.205 134.92C148.067 134.987 144.456 136.136 140.374 138.369C135.684 140.902 131.77 144.652 128.632 149.617C125.933 153.917 124.6 157.599 124.634 160.666L122.963 158.216C122.93 154.75 124.431 150.901 127.468 146.668C130.673 142.169 134.672 138.636 139.463 136.07C143.174 134.07 147.223 133.087 151.609 133.12C156.974 133.22 162.423 134.937 167.957 138.269C170.454 133.137 172.849 129.254 175.144 126.621C177.843 123.455 180.694 121.655 183.697 121.222C187.274 120.689 191.339 122.039 195.894 125.271C200.281 128.338 206.337 134.02 214.064 142.319L214.823 146.068C207.299 138.003 201.006 132.087 195.945 128.321C190.513 124.288 186.211 122.522 183.039 123.022C180.542 123.388 177.776 125.888 174.739 130.521C172.714 133.587 170.994 136.786 169.577 140.119Z" fill="#0D131A"/>
<path d="M138.148 34.4865C137.136 33.1867 136.731 32.3702 136.933 32.0369C137.17 31.6703 137.996 32.0869 139.413 33.2867C142.619 35.9862 146.313 41.602 150.497 50.1339C154.04 57.466 157.111 65.0647 159.709 72.9301C160.485 75.3297 160.552 76.5128 159.911 76.4795C159.304 76.4462 158.679 75.4963 158.038 73.63C154.833 64.1316 150.818 55.1331 145.993 46.6345C143.091 41.4687 140.476 37.4193 138.148 34.4865Z" fill="#0D131A"/>
<path d="M137.084 22.5386C145.486 25.7714 153.921 31.1871 162.39 38.7859C171.804 47.2511 180.205 57.5161 187.594 69.5807L185.216 69.4308C177.995 57.8993 169.897 48.2176 160.922 40.3856C153.094 33.5867 145.216 28.6542 137.287 25.5881C136.308 25.2215 135.633 25.2215 135.262 25.5881C134.351 26.1546 133.676 27.7544 133.238 30.3873C132.867 32.4536 132.597 35.5864 132.428 39.7857C132.057 48.7175 131.433 55.8664 130.555 61.2321C129.037 70.3306 126.473 78.2626 122.862 85.0282L121.445 83.9284C124.921 77.3295 127.384 69.5807 128.835 60.6822C129.678 55.4498 130.285 48.4509 130.657 39.6857C130.758 34.22 130.893 30.5039 131.061 28.5376C131.331 25.4048 132.057 23.4551 133.238 22.6886L137.084 22.5386Z" fill="#0D131A"/>
<path d="M121.75 26.038C120.974 21.6387 120.569 18.2226 120.535 15.7897C120.535 13.3235 120.94 11.5904 121.75 10.5906C122.762 9.29079 124.702 8.70756 127.57 8.84087C130.742 9.00751 134.521 10.0073 138.907 11.8404C149.873 16.5063 161.885 25.1215 174.942 37.6861C184.322 46.7179 192.656 57.6827 199.944 70.5806L196.958 70.2306C189.839 58.066 181.859 47.7177 173.019 39.1858C163.673 30.154 154.259 22.9552 144.778 17.5894C136.916 13.1235 131.315 11.0072 127.975 11.2405C125.951 11.3738 124.668 11.807 124.129 12.5403C123.555 13.2068 123.268 14.4566 123.268 16.2896C123.268 18.4226 123.639 21.5388 124.382 25.6381C124.55 26.6379 124.601 28.321 124.533 30.6872L124.382 37.1861C124.382 43.1851 123.842 49.984 122.762 57.5827C121.716 65.0482 120.265 72.4803 118.41 79.879C117.937 78.9125 117.583 77.896 117.347 76.8295C119.506 67.5311 120.991 57.7327 121.8 47.4344C122.577 37.8027 122.56 30.6706 121.75 26.038Z" fill="#0D131A"/>
<path d="M132.024 92.2769C138.367 85.778 147.916 80.0123 160.67 74.9798C173.829 69.814 184.693 67.7976 193.263 68.9308C205.478 70.5305 214.925 73.83 221.606 78.8291C228.32 83.8616 231.981 90.3939 232.589 98.4259C233.196 106.458 230.952 112.49 225.857 116.523C222.213 119.422 217.236 121.122 210.927 121.622C205.292 122.055 199.86 121.489 194.63 119.922C190.581 118.722 184.946 118.473 177.726 119.172C170.235 119.872 162.745 121.455 155.254 123.922C136.494 130.121 125.09 138.902 121.041 150.267L119.877 147.768C125.073 135.636 137.017 126.654 155.71 120.822C163.167 118.523 170.64 117.089 178.131 116.523C185.25 116.023 190.918 116.406 195.136 117.673C200.163 119.172 205.208 119.739 210.269 119.372C216.005 119.006 220.577 117.473 223.985 114.773C228.607 111.174 230.632 105.625 230.058 98.1259C229.484 90.4938 226.212 84.5115 220.239 80.1789C214.335 75.9129 205.41 72.9968 193.466 71.4304C185.233 70.3639 174.976 72.1802 162.694 76.8794C151.121 81.3454 141.269 86.9278 133.137 93.6267L132.024 92.2769Z" fill="#0D131A"/>
<path d="M25.4871 53.0337L28.1189 53.5336C25.9257 59.2327 24.9304 66.7814 25.1328 76.1798C25.2678 83.2787 26.0776 91.1773 27.5622 99.8759C28.7094 106.775 29.3167 113.19 29.3842 119.123C29.3842 123.055 29.1142 127.671 28.5744 132.97L26.0438 135.62C26.5499 132.021 26.7524 127.455 26.6512 121.922C26.5162 114.723 25.8245 107.908 24.5761 101.476C22.7878 92.3105 21.9106 83.5119 21.9443 75.08C21.9443 65.6149 23.1252 58.2662 25.4871 53.0337Z" fill="#0D131A"/>
<path d="M117.499 139.819C118.072 139.553 118.477 139.453 118.713 139.519L119.725 139.319C121.143 149.051 124.213 159.233 128.937 169.864C133.019 179.129 137.068 186.095 141.083 190.761L142.804 192.71C147.663 198.143 151.577 202.909 154.546 207.008C160.181 214.673 164.753 222.439 168.262 230.304C171.197 236.903 173.475 243.619 175.094 250.451C176.748 257.516 177.574 264.249 177.574 270.647C177.574 279.446 175.904 289.144 172.564 299.743C165.04 323.805 153.888 341.469 139.11 352.734C124.668 363.732 105.099 369.914 80.4004 371.281L82.3236 369.981C83.4371 369.381 84.0782 368.964 84.2469 368.731C107.224 366.465 125.141 360.083 137.996 349.584C151.121 338.819 161.682 321.572 169.679 297.843C172.884 288.311 174.487 278.746 174.487 269.148C174.487 256.416 171.67 243.702 166.035 231.004C162.593 223.205 158.14 215.573 152.673 208.108C149.704 204.042 145.875 199.376 141.185 194.11L139.464 192.111C135.415 187.378 131.282 180.296 127.064 170.864C122.205 160.033 119.017 149.684 117.499 139.819Z" fill="#0D131A"/>
<path d="M28.1689 46.1846C30.0247 43.0518 32.8083 39.7857 36.5198 36.3863C40.0289 33.1201 43.3861 30.6372 46.5915 28.9375L46.2372 32.7369C40.1639 36.0363 35.0858 40.8189 31.0032 47.0845L28.1689 46.1846Z" fill="#0D131A"/>
<path d="M109.502 130.971C109.131 130.737 108.996 130.338 109.097 129.771C109.198 129.204 109.586 129.038 110.261 129.271C112.657 130.138 114.259 130.804 115.069 131.271C115.542 131.537 115.744 131.804 115.676 132.071L115.069 132.42L112.336 131.871C110.784 131.504 109.839 131.204 109.502 130.971Z" fill="#0D131A"/>
<path d="M126.153 125.522C125.951 124.455 126.052 123.255 126.457 121.922C126.592 121.355 126.811 121.105 127.115 121.172C127.418 121.239 127.672 121.522 127.874 122.022C127.975 122.322 127.807 123.539 127.368 125.672C127.267 126.372 127.047 126.655 126.71 126.522C126.44 126.389 126.254 126.055 126.153 125.522Z" fill="#0D131A"/>
<path d="M17.5913 137.219C23.7321 134.386 27.4774 132.087 28.827 130.321C29.5693 129.321 30.2779 128.737 30.9527 128.571C31.7287 128.338 31.6781 129.204 30.8009 131.17C29.4512 134.037 25.8072 136.869 19.8688 139.669C14.3353 142.269 8.07633 144.268 1.09196 145.668C-11.4597 148.234 -23.4039 152.45 -34.7409 158.316C-49.7556 166.081 -59.608 175.13 -64.298 185.461C-67.3346 191.927 -68.9879 198.476 -69.2579 205.108C-69.7302 216.539 -65.3777 224.905 -56.2001 230.204C-48.271 234.77 -41.1179 234.97 -34.7409 230.804C-30.8607 228.304 -26.3563 223.105 -21.2277 215.206C-13.7372 203.642 -7.54571 195.326 -2.65328 190.261C7.97511 179.196 19.0253 173.347 30.4972 172.713C31.9143 172.613 32.5722 172.863 32.471 173.463C32.4035 174.063 31.695 174.396 30.3454 174.463C19.717 175.23 9.08856 181.329 -1.53983 192.76C-7.6132 199.259 -13.9227 207.941 -20.4685 218.806C-25.0573 226.504 -29.7472 231.654 -34.5385 234.253C-41.2529 237.919 -48.929 237.369 -57.5666 232.603C-67.6214 227.038 -72.6826 218.256 -72.7501 206.258C-72.8175 198.193 -71.0799 190.794 -67.5371 184.062C-61.4975 172.63 -51.4089 163.232 -37.2715 155.866C-27.0817 150.534 -15.5423 146.568 -2.65328 143.968C3.9262 142.668 10.6744 140.419 17.5913 137.219Z" fill="#0D131A"/>
<path d="M42.7954 53.1837C42.5254 52.5171 42.0531 52.0339 41.3783 51.7339C33.2467 48.3012 25.52 46.7348 18.1982 47.0347C13.7107 47.2347 7.26617 48.4845 -1.13532 50.7841L-11.0552 53.3337L-22.4427 55.1834C-30.8442 56.0499 -39.853 51.8339 -49.4692 42.5355C-57.837 34.4035 -64.0622 25.355 -68.1448 15.39C-68.4147 14.7234 -68.8871 14.2569 -69.5619 13.9902L-71.5864 13.9402C-72.6998 14.4068 -73.2566 15.2234 -73.2566 16.3898L-73.0541 17.3897C-68.904 27.588 -62.392 37.0697 -53.5181 45.8349C-42.6535 56.6331 -32.1095 61.499 -21.886 60.4325C-18.0058 60.0326 -14.0075 59.366 -9.89109 58.4328L0.332407 55.8333C8.26153 53.667 14.2674 52.5005 18.3501 52.3338C24.9296 52.0339 31.9139 53.4503 39.3032 56.5831C39.978 56.8498 40.6697 56.8498 41.3783 56.5831C42.0531 56.3165 42.5254 55.8499 42.7954 55.1834C43.0653 54.5168 43.0653 53.8503 42.7954 53.1837ZM18.2488 44.8851C25.908 44.4518 33.854 46.2015 42.0868 50.1342C43.234 50.6675 44.1113 51.5506 44.7186 52.7838C45.3259 54.0502 45.3934 55.2167 44.9211 56.2832C44.4487 57.383 43.5546 58.0995 42.2387 58.4328L38.5946 58.1829C31.4416 55.1834 24.6934 53.8169 18.3501 54.0836C14.3686 54.2502 8.51459 55.4 0.787914 57.533L-9.68864 60.2825C-14.075 61.3157 -18.1914 62.0322 -22.0378 62.4322C-32.8012 63.532 -43.632 58.7328 -54.5304 48.0346C-63.5729 39.2027 -70.3042 29.2044 -74.7243 18.0396C-75.1967 16.8731 -75.2473 15.64 -74.8761 14.3402C-74.4712 12.9737 -73.7289 12.0739 -72.6492 11.6406L-69.0052 11.7906C-67.7568 12.3572 -66.9133 13.207 -66.4746 14.3402C-62.3245 24.6718 -56.1499 33.7203 -47.9509 41.4857C-38.9083 50.0509 -30.3212 53.9169 -22.1897 53.0837C-15.6102 52.3838 -8.7439 51.0507 -1.59082 49.0844C7.72168 46.5181 14.3349 45.1184 18.2488 44.8851Z" fill="#0D131A"/>
<path d="M51.8548 71.5307C54.0143 72.0639 56.0724 73.2804 58.0294 75.18C60.9311 78.0129 63.4111 82.1955 65.4693 87.728C67.46 93.1271 68.371 97.8929 68.2023 102.026C68.1348 103.559 66.2791 104.309 62.6351 104.275C58.35 104.275 53.6937 102.859 48.6663 100.026C47.9915 99.6593 47.5191 99.226 47.2492 98.7261L46.3382 96.4265C45.191 93.5603 44.3475 90.7108 43.8076 87.8779C42.8291 82.6788 43.0991 78.5128 44.6174 75.38C46.237 72.0139 48.6494 70.7308 51.8548 71.5307ZM56.3592 76.3799C54.4023 74.5135 52.3778 73.7636 50.2859 74.1302C48.4301 74.4302 47.2155 75.4133 46.6419 77.0797C45.7308 79.646 45.5959 83.0787 46.237 87.378C46.7431 90.9441 47.6203 94.3269 48.8688 97.5263C51.0957 99.626 54.3517 100.976 58.6368 101.576C61.0999 101.909 63.6304 101.959 66.2285 101.726L66.3803 99.8259C66.3803 96.1599 65.3343 91.9273 63.2424 87.1281C61.1842 82.4288 58.8898 78.8461 56.3592 76.3799Z" fill="#0D131A"/>
<path d="M66.8367 102.525L56.8663 102.076L53.8802 100.726C51.1472 95.0601 50 89.9443 50.4386 85.3784C50.8098 81.2457 52.1932 78.8628 54.5888 78.2295C57.8279 77.363 60.7465 79.6126 63.3446 84.9784C65.9089 90.2442 67.0729 96.0932 66.8367 102.525Z" fill="#0D131A"/>
<path d="M109.552 55.4833C108 54.4168 107.224 55.7166 107.224 59.3827C107.224 62.8154 108.067 67.0481 109.754 72.0806C111.441 77.213 113.348 81.1457 115.473 83.8786C116.823 83.212 117.683 82.4788 118.054 81.679C117.548 75.8466 116.401 70.3642 114.613 65.2317C112.825 59.8326 111.138 56.5831 109.552 55.4833ZM107.73 53.4337C108.506 53.1337 109.349 53.2837 110.26 53.8836C112.049 55.1167 113.871 58.4162 115.726 63.7819C117.683 69.4477 118.949 75.4467 119.522 81.7789L119.472 82.2789C118.965 83.6453 117.734 84.6951 115.777 85.4283H115.018L114.714 85.2284C112.082 82.0622 109.737 77.1797 107.679 70.5808C105.553 63.7486 104.963 58.7994 105.908 55.7333C106.313 54.5002 106.92 53.7336 107.73 53.4337Z" fill="#0D131A"/>
<path d="M115.524 84.7782C113.129 82.5119 111.003 78.5626 109.147 72.9302L107.021 65.1315C106.583 62.5319 106.819 60.8155 107.73 59.9823C108.607 59.2158 109.687 59.4158 110.969 60.5822C112.251 61.7154 113.635 64.0983 115.119 67.731C116.874 72.0636 118.173 76.8295 119.016 82.0286C118.207 82.8618 117.043 83.7784 115.524 84.7782Z" fill="#0D131A"/>
<path d="M48.2621 25.7379C46.9462 30.8038 46.6931 33.7033 47.5029 34.4365C48.5826 35.4363 50.2528 36.0529 52.5134 36.2862C54.7403 36.5195 56.9335 36.3362 59.0929 35.7363C61.3535 35.0697 63.1081 33.9032 64.3565 32.2369C65.5374 30.6038 65.9086 28.9707 65.4699 27.3377C65.1663 26.2379 62.9731 24.2882 58.8904 21.4886C54.7741 18.6558 52.2772 17.406 51.4 17.7393C50.5564 18.0725 49.5105 20.7388 48.2621 25.7379ZM45.1748 34.5365C44.8036 33.17 45.1241 29.8872 46.1364 24.6881C47.2836 19.0224 48.5995 15.9062 50.0841 15.3397C51.6362 14.7731 54.7909 16.1895 59.5484 19.589C64.1034 22.8218 66.5834 25.088 66.9883 26.3878C67.7306 28.8874 67.4606 31.1037 66.1785 33.0367C64.8963 34.9697 62.72 36.4528 59.6496 37.486C56.208 38.6525 52.8846 38.7024 49.6792 37.636C47.0474 36.7361 45.5459 35.7029 45.1748 34.5365Z" fill="#0D131A"/>
<path d="M59.0925 133.62L60.8133 133.92C55.6172 161.382 53.0698 184.178 53.171 202.309C53.3059 227.838 58.3502 247.368 68.3038 260.899L65.6214 260.249C55.3979 246.351 50.2861 227.088 50.2861 202.459C50.2861 184.462 53.2216 161.515 59.0925 133.62Z" fill="#0D131A"/>
<path d="M118.916 144.068L120.08 144.918C115.558 151.084 108.76 154.867 99.6834 156.266C91.8555 157.433 82.9816 157.016 73.0618 155.017C64.6265 153.317 59.0255 151.45 56.2588 149.417L57.1192 148.268C59.5485 150.067 64.7446 151.767 72.7075 153.367C82.3911 155.333 91.2144 155.716 99.1773 154.517C108.321 153.117 114.901 149.634 118.916 144.068Z" fill="#0D131A"/>
<path d="M50.2353 126.222C49.2906 124.289 48.6663 122.306 48.3627 120.273C48.1602 118.673 48.2109 117.806 48.5145 117.673C48.8519 117.54 49.3074 118.373 49.881 120.173C51.2307 124.205 53.4238 127.538 56.4605 130.171C58.9236 132.304 61.5891 133.987 64.4571 135.22C67.2913 136.486 69.7038 137.036 71.6945 136.87L72.6561 138.469C69.6195 138.669 66.5997 138.27 63.5967 137.27C60.4925 136.203 57.6246 134.553 54.9928 132.321C53.0021 130.654 51.4162 128.621 50.2353 126.222Z" fill="#0D131A"/>
<path d="M129.442 93.2269C126.27 88.5277 122.711 85.1949 118.763 83.2286C118.358 82.762 118.223 82.2788 118.358 81.7788C118.493 81.2456 118.949 81.1123 119.725 81.3789C124.381 83.6452 128.278 86.7114 131.416 90.5774C134.756 94.71 136.781 99.2426 137.489 104.175C139.649 119.106 135.515 130.271 125.089 137.67C119.59 141.569 112.639 144.168 104.238 145.468C97.3207 146.468 91.2642 146.468 86.0681 145.468C81.8505 144.635 77.9871 143.085 74.4781 140.819C70.8003 138.419 68.101 135.837 66.3803 133.07C65.0306 130.837 64.0353 127.988 63.3942 124.522C63.1917 123.422 63.293 122.639 63.6979 122.172C64.1028 121.672 64.4739 122.039 64.8113 123.272C65.3849 125.305 66.5152 127.688 68.2023 130.421C70.5304 134.153 73.1791 136.97 76.1483 138.869C79.5561 141.102 83.7231 142.552 88.6493 143.219C94.7226 144.052 101.336 143.569 108.489 141.769C120.467 138.769 128.48 132.82 132.529 123.922C135.229 118.023 135.988 111.841 134.807 105.375C134.132 101.509 132.344 97.4596 129.442 93.2269Z" fill="#0D131A"/>
<path d="M112.235 57.8327C111.931 57.2328 111.476 56.6662 110.868 56.133L109.502 54.5333C108.76 49.7341 105.706 44.5349 100.341 38.9359C94.133 32.4703 87.098 28.321 79.2364 26.4879C74.6138 25.3881 69.907 25.1715 65.1158 25.838L63.2432 23.6384C68.8442 22.9385 74.3439 23.2051 79.7425 24.4383C88.4476 26.4713 95.9381 30.8205 102.214 37.4861C108.287 43.9184 111.628 50.7006 112.235 57.8327Z" fill="#0D131A"/>
<path d="M59.4982 83.0288C59.7344 84.1619 59.6332 85.1451 59.1946 85.9783C58.7559 86.7448 58.0811 87.2114 57.1701 87.378C56.2929 87.578 55.4831 87.428 54.7408 86.9281C53.931 86.3615 53.408 85.5117 53.1718 84.3785C52.9356 83.2454 53.0537 82.2622 53.5261 81.429C53.9985 80.6292 54.6733 80.1459 55.5505 79.9793C56.4278 79.7793 57.2376 79.9459 57.9799 80.4792C58.7559 81.0458 59.262 81.8956 59.4982 83.0288Z" fill="white"/>
<path d="M111.475 64.4816C111.779 65.4815 111.88 66.3813 111.779 67.1812C111.678 67.981 111.391 68.4476 110.919 68.5809C110.446 68.7143 109.957 68.4643 109.451 67.8311C108.911 67.2312 108.506 66.4313 108.236 65.4315C107.932 64.465 107.831 63.5818 107.932 62.7819C108.067 61.982 108.354 61.5155 108.793 61.3822C109.232 61.2155 109.721 61.4488 110.261 62.082C110.8 62.6819 111.205 63.4818 111.475 64.4816Z" fill="white"/>
<path d="M120.94 -42.6505L123.673 -42.7505C124.584 -42.3839 125.225 -41.7673 125.596 -40.9008C130.286 -30.4692 131.94 -20.8208 130.556 -11.9556C129.139 -3.12376 124.905 3.6751 117.853 8.44098C111.611 12.6736 107.359 17.0395 105.099 21.5388C102.872 25.9381 102.011 31.6204 102.518 38.586C102.585 39.5858 102.349 40.4356 101.809 41.1355C101.269 41.8687 100.51 42.3187 99.5315 42.4853C98.4855 42.6853 97.5745 42.1854 96.7985 40.9856C96.0224 39.8191 95.6006 38.336 95.5332 36.5363C95.2632 28.9709 96.3936 22.7386 98.9241 17.8394C101.657 12.5736 106.634 7.5078 113.854 2.64194C119.388 -1.09077 122.627 -6.60651 123.572 -13.9053C124.517 -21.2041 123.032 -29.2527 119.118 -38.0513C118.713 -38.9178 118.696 -39.801 119.067 -40.7008C119.405 -41.634 120.029 -42.2839 120.94 -42.6505Z" fill="#FFF3C2"/>
<path d="M101.961 20.9388C103.277 18.1059 105.402 15.623 108.338 13.49C110.733 11.757 112.96 10.6905 115.018 10.2905C113.365 11.2904 111.509 12.9401 109.451 15.2397C107.056 17.9059 105.318 20.4888 104.238 22.9884C103.091 25.7213 102.45 28.7708 102.315 32.1369L102.517 38.5858C102.585 39.619 102.484 40.3688 102.214 40.8354C101.91 41.3354 101.303 41.6686 100.392 41.8353C99.5819 41.9686 99.1939 39.6523 99.2276 34.8864C99.2276 29.6206 100.139 24.9714 101.961 20.9388Z" fill="#DBD2A9"/>
<path d="M126.406 -41.2507C131.366 -30.0192 133.205 -20.0542 131.923 -11.3557C130.674 -2.65713 126.423 4.12508 119.169 8.99093C115.288 11.6238 112.319 13.9401 110.261 15.9398C107.629 18.506 105.757 21.2389 104.643 24.1384C104.103 25.5049 103.698 27.5212 103.429 30.1874C103.192 32.7536 103.142 35.4532 103.277 38.286C103.344 39.7191 102.99 40.9189 102.214 41.8855C101.472 42.752 100.561 43.1852 99.4808 43.1852C97.119 43.2519 95.7187 41.7188 95.2801 38.586C94.9764 35.9531 94.8752 33.1536 94.9764 30.1874C95.0777 26.288 95.55 23.1386 96.3936 20.739C97.6082 17.2729 99.5315 14.0401 102.163 11.0406C104.728 8.14108 108.169 5.2249 112.488 2.29205C117.887 -1.37401 121.092 -6.53981 122.104 -13.2054C123.15 -20.0042 121.885 -28.1695 118.308 -37.7013C117.701 -39.301 117.6 -40.7008 118.005 -41.9006C118.376 -42.9671 119.135 -43.7669 120.282 -44.3002C121.497 -44.7668 122.627 -44.7834 123.673 -44.3502L125.293 -43.0504L126.406 -41.2507ZM123.319 -41.9006L121.294 -41.8506C120.248 -41.4507 119.725 -40.6508 119.725 -39.451L119.928 -38.4012C123.133 -31.2357 124.736 -24.4535 124.736 -18.0546C124.736 -13.422 123.876 -9.27269 122.155 -5.60663C120.366 -1.90725 117.768 1.09225 114.361 3.39187C108.962 7.02459 104.913 10.674 102.214 14.34C99.4134 18.1061 97.7095 21.5055 97.1021 24.5383C96.5623 27.3045 96.5454 31.9038 97.0515 38.336C97.2877 40.469 98.1143 41.5188 99.5315 41.4855C100.173 41.4855 100.712 41.1689 101.151 40.5357C101.556 39.9358 101.725 39.2859 101.657 38.586C101.117 30.754 102.13 24.5217 104.694 19.8891C106.887 15.9898 111.105 11.9238 117.347 7.69115C124.23 3.05859 128.329 -3.57364 129.645 -12.2055C130.995 -20.8374 129.375 -30.2859 124.787 -40.5508C124.517 -41.184 124.027 -41.634 123.319 -41.9006Z" fill="#0D131A"/>
</g>
<defs>
<clipPath id="clip0_91_268">
<rect width="160" height="160" fill="white"/>
</clipPath>
</defs>
</svg>
